<?xml version="1.0" encoding="utf-8" standalone="no"?>
<!DOCTYPE svg PUBLIC "-//W3C//DTD SVG 1.1//EN"
  "http://www.w3.org/Graphics/SVG/1.1/DTD/svg11.dtd">
<!-- Created with matplotlib (https://matplotlib.org/) -->
<svg height="345.6pt" version="1.1" viewBox="0 0 460.8 345.6" width="460.8pt" xmlns="http://www.w3.org/2000/svg" xmlns:xlink="http://www.w3.org/1999/xlink">
 <defs>
  <style type="text/css">
*{stroke-linecap:butt;stroke-linejoin:round;white-space:pre;}
  </style>
 </defs>
 <g id="figure_1">
  <g id="patch_1">
   <path d="M 0 345.6 
L 460.8 345.6 
L 460.8 0 
L 0 0 
z
" style="fill:#ffffff;"/>
  </g>
  <g id="axes_1">
   <g id="line2d_1">
    <path clip-path="url(#p2267bd801d)" d="M 75.96427 176.068296 
L 236.152909 176.068296 
" style="fill:none;stroke:#000000;stroke-linecap:square;stroke-width:5;"/>
   </g>
   <g id="line2d_2">
    <path clip-path="url(#p2267bd801d)" d="M 236.152909 176.068296 
L 396.341549 176.068296 
" style="fill:none;stroke:#000000;stroke-linecap:square;stroke-width:5;"/>
   </g>
   <g id="line2d_3">
    <path clip-path="url(#p2267bd801d)" d="M 396.341549 176.068296 
L 372.31321 120.002291 
" style="fill:none;stroke:#000000;stroke-linecap:square;stroke-width:5;"/>
   </g>
   <g id="line2d_4">
    <path clip-path="url(#p2267bd801d)" d="M 396.341549 176.068296 
L 372.313359 229.045016 
" style="fill:none;stroke:#000000;stroke-linecap:square;stroke-width:5;"/>
   </g>
   <g id="line2d_5">
    <path clip-path="url(#p2267bd801d)" d="M 372.31321 120.002291 
L 348.286372 176.068939 
" style="fill:none;stroke:#000000;stroke-linecap:square;stroke-width:5;"/>
   </g>
   <g id="line2d_6">
    <path clip-path="url(#p2267bd801d)" d="M 372.313359 229.045016 
L 348.286372 176.068939 
" style="fill:none;stroke:#000000;stroke-linecap:square;stroke-width:5;"/>
   </g>
   <g id="line2d_7">
    <path clip-path="url(#p2267bd801d)" d="M 75.96427 176.068296 
L 372.31321 120.002291 
" style="fill:none;stroke:#000000;stroke-linecap:square;stroke-width:5;"/>
   </g>
   <g id="line2d_8">
    <path clip-path="url(#p2267bd801d)" d="M 75.96427 176.068296 
L 372.313359 229.045016 
" style="fill:none;stroke:#000000;stroke-linecap:square;stroke-width:5;"/>
   </g>
   <g id="PathCollection_1">
    <defs>
     <path d="M 0 3 
C 0.795609 3 1.55874 2.683901 2.12132 2.12132 
C 2.683901 1.55874 3 0.795609 3 0 
C 3 -0.795609 2.683901 -1.55874 2.12132 -2.12132 
C 1.55874 -2.683901 0.795609 -3 0 -3 
C -0.795609 -3 -1.55874 -2.683901 -2.12132 -2.12132 
C -2.683901 -1.55874 -3 -0.795609 -3 0 
C -3 0.795609 -2.683901 1.55874 -2.12132 2.12132 
C -1.55874 2.683901 -0.795609 3 0 3 
z
" id="md1ccd0a19d" style="stroke:#000000;stroke-width:7;"/>
    </defs>
    <g clip-path="url(#p2267bd801d)">
     <use style="stroke:#000000;stroke-width:7;" x="75.96427" xlink:href="#md1ccd0a19d" y="176.068296"/>
    </g>
   </g>
   <g id="PathCollection_2">
    <g clip-path="url(#p2267bd801d)">
     <use style="stroke:#000000;stroke-width:7;" x="236.152909" xlink:href="#md1ccd0a19d" y="176.068296"/>
    </g>
   </g>
   <g id="PathCollection_3">
    <g clip-path="url(#p2267bd801d)">
     <use style="stroke:#000000;stroke-width:7;" x="396.341549" xlink:href="#md1ccd0a19d" y="176.068296"/>
    </g>
   </g>
   <g id="PathCollection_4">
    <g clip-path="url(#p2267bd801d)">
     <use style="stroke:#000000;stroke-width:7;" x="372.31321" xlink:href="#md1ccd0a19d" y="120.002291"/>
    </g>
   </g>
   <g id="PathCollection_5">
    <g clip-path="url(#p2267bd801d)">
     <use style="stroke:#000000;stroke-width:7;" x="372.313359" xlink:href="#md1ccd0a19d" y="229.045016"/>
    </g>
   </g>
   <g id="PathCollection_6">
    <g clip-path="url(#p2267bd801d)">
     <use style="stroke:#000000;stroke-width:7;" x="348.286372" xlink:href="#md1ccd0a19d" y="176.068939"/>
    </g>
   </g>
  </g>
 </g>
 <defs>
  <clipPath id="p2267bd801d">
   <rect height="122.098471" width="357.12" x="57.6" y="113.478765"/>
  </clipPath>
 </defs>
</svg>
