<?xml version="1.0" encoding="utf-8" standalone="no"?>
<!DOCTYPE svg PUBLIC "-//W3C//DTD SVG 1.1//EN"
  "http://www.w3.org/Graphics/SVG/1.1/DTD/svg11.dtd">
<!-- Created with matplotlib (https://matplotlib.org/) -->
<svg height="345.6pt" version="1.1" viewBox="0 0 460.8 345.6" width="460.8pt" xmlns="http://www.w3.org/2000/svg" xmlns:xlink="http://www.w3.org/1999/xlink">
 <defs>
  <style type="text/css">
*{stroke-linecap:butt;stroke-linejoin:round;white-space:pre;}
  </style>
 </defs>
 <g id="figure_1">
  <g id="patch_1">
   <path d="M 0 345.6 
L 460.8 345.6 
L 460.8 0 
L 0 0 
z
" style="fill:#ffffff;"/>
  </g>
  <g id="axes_1">
   <g id="line2d_1">
    <path clip-path="url(#pb99c4415ee)" d="M 75.96427 205.817499 
L 221.589345 205.817499 
" style="fill:none;stroke:#000000;stroke-linecap:square;stroke-width:5;"/>
   </g>
   <g id="line2d_2">
    <path clip-path="url(#pb99c4415ee)" d="M 221.589345 205.817499 
L 367.21442 205.817499 
" style="fill:none;stroke:#000000;stroke-linecap:square;stroke-width:5;"/>
   </g>
   <g id="line2d_3">
    <path clip-path="url(#pb99c4415ee)" d="M 367.21442 205.817499 
L 381.777197 111.161242 
" style="fill:none;stroke:#000000;stroke-linecap:square;stroke-width:5;"/>
   </g>
   <g id="line2d_4">
    <path clip-path="url(#pb99c4415ee)" d="M 367.21442 205.817499 
L 381.777103 237.884656 
" style="fill:none;stroke:#000000;stroke-linecap:square;stroke-width:5;"/>
   </g>
   <g id="line2d_5">
    <path clip-path="url(#pb99c4415ee)" d="M 381.777197 111.161242 
L 396.341549 205.817257 
" style="fill:none;stroke:#000000;stroke-linecap:square;stroke-width:5;"/>
   </g>
   <g id="line2d_6">
    <path clip-path="url(#pb99c4415ee)" d="M 381.777103 237.884656 
L 396.341549 205.817257 
" style="fill:none;stroke:#000000;stroke-linecap:square;stroke-width:5;"/>
   </g>
   <g id="line2d_7">
    <path clip-path="url(#pb99c4415ee)" d="M 75.96427 205.817499 
L 381.777197 111.161242 
" style="fill:none;stroke:#000000;stroke-linecap:square;stroke-width:5;"/>
   </g>
   <g id="line2d_8">
    <path clip-path="url(#pb99c4415ee)" d="M 75.96427 205.817499 
L 381.777103 237.884656 
" style="fill:none;stroke:#000000;stroke-linecap:square;stroke-width:5;"/>
   </g>
   <g id="PathCollection_1">
    <defs>
     <path d="M 0 3 
C 0.795609 3 1.55874 2.683901 2.12132 2.12132 
C 2.683901 1.55874 3 0.795609 3 0 
C 3 -0.795609 2.683901 -1.55874 2.12132 -2.12132 
C 1.55874 -2.683901 0.795609 -3 0 -3 
C -0.795609 -3 -1.55874 -2.683901 -2.12132 -2.12132 
C -2.683901 -1.55874 -3 -0.795609 -3 0 
C -3 0.795609 -2.683901 1.55874 -2.12132 2.12132 
C -1.55874 2.683901 -0.795609 3 0 3 
z
" id="m62e356fa5d" style="stroke:#000000;stroke-width:7;"/>
    </defs>
    <g clip-path="url(#pb99c4415ee)">
     <use style="stroke:#000000;stroke-width:7;" x="75.96427" xlink:href="#m62e356fa5d" y="205.817499"/>
    </g>
   </g>
   <g id="PathCollection_2">
    <g clip-path="url(#pb99c4415ee)">
     <use style="stroke:#000000;stroke-width:7;" x="221.589345" xlink:href="#m62e356fa5d" y="205.817499"/>
    </g>
   </g>
   <g id="PathCollection_3">
    <g clip-path="url(#pb99c4415ee)">
     <use style="stroke:#000000;stroke-width:7;" x="367.21442" xlink:href="#m62e356fa5d" y="205.817499"/>
    </g>
   </g>
   <g id="PathCollection_4">
    <g clip-path="url(#pb99c4415ee)">
     <use style="stroke:#000000;stroke-width:7;" x="381.777197" xlink:href="#m62e356fa5d" y="111.161242"/>
    </g>
   </g>
   <g id="PathCollection_5">
    <g clip-path="url(#pb99c4415ee)">
     <use style="stroke:#000000;stroke-width:7;" x="381.777103" xlink:href="#m62e356fa5d" y="237.884656"/>
    </g>
   </g>
   <g id="PathCollection_6">
    <g clip-path="url(#pb99c4415ee)">
     <use style="stroke:#000000;stroke-width:7;" x="396.341549" xlink:href="#m62e356fa5d" y="205.817257"/>
    </g>
   </g>
  </g>
 </g>
 <defs>
  <clipPath id="pb99c4415ee">
   <rect height="141.896078" width="357.12" x="57.6" y="103.579961"/>
  </clipPath>
 </defs>
</svg>
