<?xml version="1.0" encoding="utf-8" standalone="no"?>
<!DOCTYPE svg PUBLIC "-//W3C//DTD SVG 1.1//EN"
  "http://www.w3.org/Graphics/SVG/1.1/DTD/svg11.dtd">
<!-- Created with matplotlib (https://matplotlib.org/) -->
<svg height="345.6pt" version="1.1" viewBox="0 0 460.8 345.6" width="460.8pt" xmlns="http://www.w3.org/2000/svg" xmlns:xlink="http://www.w3.org/1999/xlink">
 <defs>
  <style type="text/css">
*{stroke-linecap:butt;stroke-linejoin:round;white-space:pre;}
  </style>
 </defs>
 <g id="figure_1">
  <g id="patch_1">
   <path d="M 0 345.6 
L 460.8 345.6 
L 460.8 0 
L 0 0 
z
" style="fill:#ffffff;"/>
  </g>
  <g id="axes_1">
   <g id="line2d_1">
    <path clip-path="url(#p3df87a9ea6)" d="M 140.039916 217.768826 
L 108.002093 217.768826 
" style="fill:none;stroke:#000000;stroke-linecap:square;stroke-width:5;"/>
   </g>
   <g id="line2d_2">
    <path clip-path="url(#p3df87a9ea6)" d="M 108.002093 217.768826 
L 75.96427 217.768826 
" style="fill:none;stroke:#000000;stroke-linecap:square;stroke-width:5;"/>
   </g>
   <g id="line2d_3">
    <path clip-path="url(#p3df87a9ea6)" d="M 75.96427 217.768826 
L 236.152838 121.654446 
" style="fill:none;stroke:#000000;stroke-linecap:square;stroke-width:5;"/>
   </g>
   <g id="line2d_4">
    <path clip-path="url(#p3df87a9ea6)" d="M 75.96427 217.768826 
L 236.152607 227.393124 
" style="fill:none;stroke:#000000;stroke-linecap:square;stroke-width:5;"/>
   </g>
   <g id="line2d_5">
    <path clip-path="url(#p3df87a9ea6)" d="M 236.152838 121.654446 
L 396.341549 217.76859 
" style="fill:none;stroke:#000000;stroke-linecap:square;stroke-width:5;"/>
   </g>
   <g id="line2d_6">
    <path clip-path="url(#p3df87a9ea6)" d="M 236.152607 227.393124 
L 396.341549 217.76859 
" style="fill:none;stroke:#000000;stroke-linecap:square;stroke-width:5;"/>
   </g>
   <g id="line2d_7">
    <path clip-path="url(#p3df87a9ea6)" d="M 140.039916 217.768826 
L 236.152838 121.654446 
" style="fill:none;stroke:#000000;stroke-linecap:square;stroke-width:5;"/>
   </g>
   <g id="line2d_8">
    <path clip-path="url(#p3df87a9ea6)" d="M 140.039916 217.768826 
L 236.152607 227.393124 
" style="fill:none;stroke:#000000;stroke-linecap:square;stroke-width:5;"/>
   </g>
   <g id="PathCollection_1">
    <defs>
     <path d="M 0 3 
C 0.795609 3 1.55874 2.683901 2.12132 2.12132 
C 2.683901 1.55874 3 0.795609 3 0 
C 3 -0.795609 2.683901 -1.55874 2.12132 -2.12132 
C 1.55874 -2.683901 0.795609 -3 0 -3 
C -0.795609 -3 -1.55874 -2.683901 -2.12132 -2.12132 
C -2.683901 -1.55874 -3 -0.795609 -3 0 
C -3 0.795609 -2.683901 1.55874 -2.12132 2.12132 
C -1.55874 2.683901 -0.795609 3 0 3 
z
" id="m85d6bdba44" style="stroke:#000000;stroke-width:7;"/>
    </defs>
    <g clip-path="url(#p3df87a9ea6)">
     <use style="stroke:#000000;stroke-width:7;" x="140.039916" xlink:href="#m85d6bdba44" y="217.768826"/>
    </g>
   </g>
   <g id="PathCollection_2">
    <g clip-path="url(#p3df87a9ea6)">
     <use style="stroke:#000000;stroke-width:7;" x="108.002093" xlink:href="#m85d6bdba44" y="217.768826"/>
    </g>
   </g>
   <g id="PathCollection_3">
    <g clip-path="url(#p3df87a9ea6)">
     <use style="stroke:#000000;stroke-width:7;" x="75.96427" xlink:href="#m85d6bdba44" y="217.768826"/>
    </g>
   </g>
   <g id="PathCollection_4">
    <g clip-path="url(#p3df87a9ea6)">
     <use style="stroke:#000000;stroke-width:7;" x="236.152838" xlink:href="#m85d6bdba44" y="121.654446"/>
    </g>
   </g>
   <g id="PathCollection_5">
    <g clip-path="url(#p3df87a9ea6)">
     <use style="stroke:#000000;stroke-width:7;" x="236.152607" xlink:href="#m85d6bdba44" y="227.393124"/>
    </g>
   </g>
   <g id="PathCollection_6">
    <g clip-path="url(#p3df87a9ea6)">
     <use style="stroke:#000000;stroke-width:7;" x="396.341549" xlink:href="#m85d6bdba44" y="217.76859"/>
    </g>
   </g>
  </g>
 </g>
 <defs>
  <clipPath id="p3df87a9ea6">
   <rect height="118.398828" width="357.12" x="57.6" y="115.328586"/>
  </clipPath>
 </defs>
</svg>
